<?xml version="1.0" encoding="UTF-8" standalone="no"?>
<!-- Created with Inkscape (http://www.inkscape.org/) -->

<svg
   xmlns:dc="http://purl.org/dc/elements/1.1/"
   xmlns:cc="http://creativecommons.org/ns#"
   xmlns:rdf="http://www.w3.org/1999/02/22-rdf-syntax-ns#"
   xmlns:svg="http://www.w3.org/2000/svg"
   xmlns="http://www.w3.org/2000/svg"
   xmlns:sodipodi="http://sodipodi.sourceforge.net/DTD/sodipodi-0.dtd"
   xmlns:inkscape="http://www.inkscape.org/namespaces/inkscape"
   width="210mm"
   height="297mm"
   viewBox="0 0 210 297"
   version="1.1"
   id="svg8"
   inkscape:version="0.92.2 5c3e80d, 2017-08-06"
   sodipodi:docname="rewtro.svg">
  <defs
     id="defs2" />
  <sodipodi:namedview
     id="base"
     pagecolor="#ffffff"
     bordercolor="#666666"
     borderopacity="1.0"
     inkscape:pageopacity="0.0"
     inkscape:pageshadow="2"
     inkscape:zoom="0.35355339"
     inkscape:cx="-434.56938"
     inkscape:cy="431.17125"
     inkscape:document-units="mm"
     inkscape:current-layer="layer1"
     showgrid="false"
     inkscape:window-width="1680"
     inkscape:window-height="925"
     inkscape:window-x="0"
     inkscape:window-y="1"
     inkscape:window-maximized="1" />
  <metadata
     id="metadata5">
    <rdf:RDF>
      <cc:Work
         rdf:about="">
        <dc:format>image/svg+xml</dc:format>
        <dc:type
           rdf:resource="http://purl.org/dc/dcmitype/StillImage" />
        <dc:title />
      </cc:Work>
    </rdf:RDF>
  </metadata>
  <g
     inkscape:label="Livello 1"
     inkscape:groupmode="layer"
     id="layer1">
    <g
       id="g19435"
       transform="translate(-2.0107871,68.043234)">
      <path
         sodipodi:nodetypes="scscccsccscscccsccscscccsscsccccss"
         d="m 80.072622,118.30064 c 0.759323,0 1.401826,0.26284 1.927511,0.78853 0.545155,0.52569 0.817732,1.17792 0.817732,1.95671 0,0.3894 -0.07788,0.74959 -0.233637,1.08058 -0.136289,0.33099 -0.330987,0.0939 -0.584095,0.34697 -0.233637,0.23364 -0.525684,0.42834 -0.876141,0.5841 -0.330987,0.13629 -0.681443,0.20443 -1.05137,0.20443 h -4.030251 v 1.49292 h 2.10274 c 0.759323,0 1.401826,0.26284 1.927511,0.78853 0.545155,0.52569 0.817732,1.17793 0.817732,1.95672 0,0.38939 -0.07788,0.74958 -0.233638,1.08057 -0.136289,0.33099 -0.330987,0.62303 -0.584094,0.87614 -0.233638,0.23364 -0.525685,0.42834 -0.876141,0.5841 -0.330987,0.13629 -0.681444,0.20443 -1.05137,0.20443 h -2.10274 v 0.96376 h 4.030251 c 0.759323,0 1.401826,0.26284 1.927511,0.78852 0.545155,0.52569 0.817732,1.17793 0.817732,1.95672 0,0.38939 -0.07788,0.74958 -0.233637,1.08057 -0.136289,0.33099 -0.330987,0.62304 -0.584095,0.87615 -0.233637,0.23363 -0.525684,0.42833 -0.876141,0.58409 -0.330987,0.13629 -0.681443,0.20443 -1.05137,0.20443 h -6.775494 c -0.778793,0 -1.431032,-0.26284 -1.956717,-0.78852 -0.525685,-0.52569 -0.788527,-1.17793 -0.788527,-1.95672 v -12.70405 c -0.01947,-0.35046 -0.06815,-0.70092 -0.146024,-1.05137 -0.07788,-0.35046 -0.107082,-0.66198 -0.08761,-0.93455 0.03894,-0.29205 0.175229,-0.52569 0.408866,-0.70092 0.233638,-0.17523 0.671709,-0.26284 1.314213,-0.26284 z"
         style="font-style:normal;font-variant:normal;font-weight:normal;font-stretch:normal;font-size:medium;line-height:125%;font-family:bubbleboddy;-inkscape-font-specification:bubbleboddy;font-variant-ligatures:normal;font-variant-caps:normal;font-variant-numeric:normal;font-feature-settings:normal;text-align:center;letter-spacing:-1.1932708px;word-spacing:0px;writing-mode:lr-tb;text-anchor:middle;fill:#222831;fill-opacity:1;stroke:none;stroke-width:0.91264743px;stroke-linecap:butt;stroke-linejoin:miter;stroke-opacity:1"
         id="path1902"
         inkscape:connector-curvature="0" />
      <path
         d="m 101.90682,120.07268 q 0.40887,-1.10978 1.40183,-1.57705 0.99296,-0.46728 2.10274,-0.0876 0.52568,0.17523 0.90534,0.55489 0.40887,0.35046 0.64251,0.81774 0.23363,0.46727 0.26284,1.02216 0.0292,0.55489 -0.14603,1.10978 l -4.70196,12.90849 q -0.40886,1.10978 -1.34341,1.60626 -0.93455,0.49648 -2.044334,0.0876 -0.584097,-0.17523 -0.992963,-0.52569 -0.379661,-0.37966 -0.613299,-0.84693 l -1.752283,-4.05946 -1.781488,4.05946 q -0.233638,0.46727 -0.642504,0.84693 -0.379661,0.35046 -0.934551,0.52569 -1.109779,0.40887 -2.073535,-0.0876 -0.934551,-0.49648 -1.343417,-1.60626 L 84.179551,121.9126 q -0.175228,-0.55489 -0.146023,-1.10978 0.0292,-0.55489 0.262842,-1.02216 0.233638,-0.46728 0.613299,-0.81774 0.408866,-0.37966 0.934551,-0.55489 1.10978,-0.37966 2.10274,0.0876 1.022165,0.46727 1.401826,1.57705 l 2.628425,7.56403 1.314212,-3.6798 q 0.321252,-0.93455 0.963756,-1.34342 0.671708,-0.43807 1.401826,-0.40886 0.730118,0.0292 1.372622,0.49648 0.642504,0.43807 0.934551,1.2558 l 1.343418,3.6798 z"
         style="font-style:normal;font-variant:normal;font-weight:normal;font-stretch:normal;font-size:medium;line-height:125%;font-family:bubbleboddy;-inkscape-font-specification:bubbleboddy;font-variant-ligatures:normal;font-variant-caps:normal;font-variant-numeric:normal;font-feature-settings:normal;text-align:center;letter-spacing:-1.1932708px;word-spacing:0px;writing-mode:lr-tb;text-anchor:middle;fill:#222831;fill-opacity:1;stroke:none;stroke-width:0.91264743px;stroke-linecap:butt;stroke-linejoin:miter;stroke-opacity:1"
         id="path1904"
         inkscape:connector-curvature="0" />
      <path
         sodipodi:nodetypes="scscscscccssccscssss"
         d="m 119.32243,118.30064 c 0.75932,0 1.40182,0.26284 1.92751,0.78853 0.54515,0.52569 0.81773,1.17792 0.81773,1.95671 0,0.3894 -0.0779,0.74959 -0.23363,1.08058 -0.13629,0.33099 -0.33099,0.0939 -0.5841,0.34697 -0.23364,0.23364 -0.52569,0.42834 -0.87614,0.5841 -0.33099,0.13629 -0.69774,0.0958 -1.05137,0.20443 h -1.72308 l -0.0584,10.69241 c 0,0.77879 -0.26284,1.43103 -0.78853,1.95672 -0.50621,0.52568 -1.13898,0.78852 -1.8983,0.78852 -0.77879,0 -1.4213,-0.26284 -1.92751,-0.78852 -0.50622,-0.52569 -0.75933,-1.17793 -0.75933,-1.95672 l -0.0584,-10.69241 h -1.72307 c -0.77879,0 -1.43103,0.26633 -1.95672,-0.25936 -0.52569,-0.54515 -0.78853,-1.19739 -0.78853,-1.95672 0,-0.77879 0.26284,-1.43102 0.78853,-1.95671 0.52569,-0.52569 1.17793,-0.78853 1.95672,-0.78853 z"
         style="font-style:normal;font-variant:normal;font-weight:normal;font-stretch:normal;font-size:medium;line-height:125%;font-family:bubbleboddy;-inkscape-font-specification:bubbleboddy;font-variant-ligatures:normal;font-variant-caps:normal;font-variant-numeric:normal;font-feature-settings:normal;text-align:center;letter-spacing:-1.1932708px;word-spacing:0px;writing-mode:lr-tb;text-anchor:middle;fill:#222831;fill-opacity:1;stroke:none;stroke-width:0.91264743px;stroke-linecap:butt;stroke-linejoin:miter;stroke-opacity:1"
         id="path1906"
         inkscape:connector-curvature="0" />
      <path
         sodipodi:nodetypes="cscscscccssscccsccccccsccsccsccccccss"
         d="m 128.44572,132.90202 v 1.05137 c 0,0.77879 -0.27258,1.43103 -0.81773,1.95672 -0.52569,0.52568 -1.16819,0.78852 -1.92751,0.78852 -0.77879,0 -1.43103,-0.26284 -1.95672,-0.78852 -0.52568,-0.52569 -0.78852,-1.17793 -0.78852,-1.95672 V 121.0449 c -0.0195,-0.35045 -0.0681,-0.70091 -0.14603,-1.05137 -0.0779,-0.35045 -0.10708,-0.1328 -0.0876,-0.40538 0.0389,-0.29205 0.17522,-0.52569 0.40886,-0.70091 0.23364,-0.17523 0.67171,-0.26284 1.31422,-0.26284 h 5.54889 c 1.01243,0 1.96645,0.19469 2.86206,0.58409 0.91509,0.3894 1.70362,0.39565 2.36559,1.07709 0.68144,0.66197 1.21686,1.4505 1.60626,2.36558 0.38939,0.89561 0.58409,1.84964 0.58409,2.86207 0,0.58409 -0.0876,1.15845 -0.26284,1.72307 -0.17523,0.56463 -0.4186,1.10005 -0.73012,1.60626 -0.29205,0.50622 -0.6425,0.96376 -1.05137,1.37263 -0.38939,0.40887 -0.80799,0.73985 -1.2558,0.99296 l 1.34341,0.75932 c 0.31152,0.21417 0.53542,0.48674 0.67171,0.81773 0.13629,0.33099 0.20444,0.68144 0.20444,1.05137 0,0.35046 -0.0779,0.71065 -0.23364,1.08058 -0.13629,0.36993 -0.33099,0.69118 -0.5841,0.96375 -0.54515,0.52569 -1.18766,0.79826 -1.92751,0.81773 -0.73985,0.0195 -1.39209,-0.25311 -1.95671,-0.81773 z m 3.53377,-7.33038 c 0,-0.52569 -0.20443,-0.97349 -0.6133,-1.34342 -0.38939,-0.3894 -0.84693,-0.59383 -1.37262,-0.6133 l -1.54785,-0.0584 v 3.94264 l 1.54785,-0.0584 c 0.52569,-0.0195 0.98323,-0.20443 1.37262,-0.55489 0.40887,-0.35046 0.6133,-0.78853 0.6133,-1.31421 z"
         style="font-style:normal;font-variant:normal;font-weight:normal;font-stretch:normal;font-size:medium;line-height:125%;font-family:bubbleboddy;-inkscape-font-specification:bubbleboddy;font-variant-ligatures:normal;font-variant-caps:normal;font-variant-numeric:normal;font-feature-settings:normal;text-align:center;letter-spacing:-1.1932708px;word-spacing:0px;writing-mode:lr-tb;text-anchor:middle;fill:#222831;fill-opacity:1;stroke:none;stroke-width:0.91264743px;stroke-linecap:butt;stroke-linejoin:miter;stroke-opacity:1"
         id="path1908"
         inkscape:connector-curvature="0" />
      <path
         id="path1557"
         d="m 147.44624,118.27365 c -5.08897,0.005 -9.20721,4.13734 -9.20047,9.22631 0.007,5.08897 4.13542,9.20715 9.22528,9.19996 5.08717,-0.006 9.20648,-4.14047 9.1984,-9.22786 -0.007,-5.08695 -4.13828,-9.20515 -9.22321,-9.19841 z m 1.02165,4.6359 c 0.0691,-0.002 0.13727,0.0164 0.20257,0.0372 0.39191,0.24541 1.22522,0.27031 1.26142,0.83406 -0.29608,0.24762 -0.0572,0.48899 0.16847,0.6966 0.29945,0.17914 0.63816,0.95263 1.0082,0.55242 0.57672,-0.10677 0.61366,0.8111 0.85473,1.1529 0.25565,0.37696 -0.16262,0.64461 -0.51315,0.5364 -0.0552,0.51129 -0.0729,1.1394 0.10852,1.63504 0.81544,0.0497 0.21252,0.8401 0.0796,1.3069 -0.0565,0.43226 -0.51691,0.46264 -0.72968,0.12558 -0.4443,0.22397 -0.80996,0.70369 -1.14463,1.09192 0.0739,0.2021 0.42703,0.51759 0.0481,0.69349 -0.4416,0.16591 -1.1173,0.78532 -1.53892,0.32557 0.0571,-0.4572 -0.44733,-0.31567 -0.74879,-0.33797 -0.26678,0.0852 -0.91874,-0.18454 -0.96894,0.17674 -0.11206,0.66205 -0.93705,0.12581 -1.28778,-0.0165 -0.39152,-0.0744 -0.49516,-0.50073 -0.16691,-0.72709 -0.27559,-0.44472 -0.71896,-0.84494 -1.14825,-1.16117 -0.30097,0.45733 -0.742,0.0902 -0.8108,-0.33124 -0.19908,-0.32103 -0.51967,-1.15935 0.15658,-1.11725 0.16653,-0.4738 0.0792,-1.12436 0.0393,-1.64951 -0.43736,0.0615 -0.58719,-0.43303 -0.35657,-0.75861 0.14274,-0.38373 0.40999,-1.22188 0.94516,-0.78135 0.47955,-0.15673 0.86048,-0.67142 1.17926,-1.0697 -0.38465,-0.30166 -0.11674,-0.80368 0.31368,-0.87488 0.35515,-0.13607 1.145,-0.58248 1.1684,0.10387 0.34558,0.27395 0.95156,0.0999 1.38028,0.1757 0.50223,0.14724 0.0511,-0.61208 0.50023,-0.61908 z"
         style="fill:#222831;fill-opacity:1;stroke-width:0.22455938"
         inkscape:connector-curvature="0" />
      <path
         sodipodi:nodetypes="ccccc"
         inkscape:connector-curvature="0"
         id="rect1012"
         d="m 104.46262,118.25521 h 43.50509 l -5.55625,5.27354 h -37.94884 z"
         style="opacity:1;fill:#222831;fill-opacity:1;fill-rule:nonzero;stroke:none;stroke-width:0.46502906;stroke-linecap:square;stroke-linejoin:round;stroke-miterlimit:4;stroke-dasharray:none;stroke-dashoffset:15.11811066;stroke-opacity:1;paint-order:markers fill stroke" />
      <path
         sodipodi:nodetypes="ccccc"
         inkscape:connector-curvature="0"
         id="rect1018"
         d="m 61.47258,118.25521 h 25.385229 v 5.27354 l -20.329578,0.16358 z"
         style="opacity:1;fill:#222831;fill-opacity:1;fill-rule:nonzero;stroke:none;stroke-width:0.35522261;stroke-linecap:square;stroke-linejoin:round;stroke-miterlimit:4;stroke-dasharray:none;stroke-dashoffset:15.11811066;stroke-opacity:1;paint-order:markers fill stroke" />
      <path
         sodipodi:nodetypes="cscscscccssscccscccccssccsccsccccccss"
         d="m 59.921938,132.90202 v 1.05137 c 0,0.77879 -0.272577,1.43103 -0.817732,1.95672 -0.525685,0.52568 -1.168188,0.78852 -1.927511,0.78852 -0.778793,0 -1.431031,-0.26284 -1.956716,-0.78852 -0.525685,-0.52569 -0.788528,-1.17793 -0.788528,-1.95672 V 121.2203 c -0.01947,-0.35046 -0.06814,-0.70091 -0.146023,-1.05137 -0.07788,-0.35046 -0.107083,-0.66197 -0.08761,-0.93455 0.03894,-0.29205 0.175229,-0.52569 0.408866,-0.70091 0.233637,-0.17523 0.671708,-0.26284 1.314212,-0.26284 h 5.548896 c 1.012431,0 1.966452,0.19469 2.862063,0.58409 0.915081,0.3894 1.703608,0.92482 2.365582,1.60626 0.681443,0.66197 1.216863,1.2751 1.606259,2.19018 0.389397,0.89561 0.584095,1.84964 0.584095,2.86207 0,0.58409 -0.08761,1.15845 -0.262843,1.72307 -0.175228,0.56463 -0.418601,1.10005 -0.730118,1.60626 -0.292047,0.50622 -0.642503,0.96376 -1.05137,1.37263 -0.389396,0.40887 -0.807997,0.73985 -1.255802,0.99296 l 1.343417,0.75932 c 0.311517,0.21417 0.535419,0.48674 0.671708,0.81773 0.136289,0.33099 0.204433,0.68144 0.204433,1.05137 0,0.35046 -0.07788,0.71065 -0.233638,1.08058 -0.136289,0.36993 -0.330987,0.69118 -0.584094,0.96375 -0.545155,0.52569 -1.187658,0.79826 -1.927511,0.81773 -0.739853,0.0195 -1.392092,-0.25311 -1.956716,-0.81773 z m 3.533771,-7.33038 c 0,-0.52569 -0.204433,-0.97349 -0.613299,-1.34342 -0.389396,-0.3894 -0.846937,-0.59383 -1.372622,-0.6133 l -1.54785,-0.0584 v 3.94264 l 1.54785,-0.0584 c 0.525685,-0.0195 0.983226,-0.20443 1.372622,-0.55489 0.408866,-0.35046 0.613299,-0.78853 0.613299,-1.31421 z"
         style="font-style:normal;font-variant:normal;font-weight:normal;font-stretch:normal;font-size:medium;line-height:125%;font-family:bubbleboddy;-inkscape-font-specification:bubbleboddy;font-variant-ligatures:normal;font-variant-caps:normal;font-variant-numeric:normal;font-feature-settings:normal;text-align:center;letter-spacing:-1.1932708px;word-spacing:0px;writing-mode:lr-tb;text-anchor:middle;fill:#222831;fill-opacity:1;stroke:none;stroke-width:0.91264743px;stroke-linecap:butt;stroke-linejoin:miter;stroke-opacity:1"
         id="path1053"
         inkscape:connector-curvature="0" />
    </g>
    <g
       id="g1226"
       transform="translate(4.1215282,67.859717)">
      <path
         inkscape:export-ydpi="118.47272"
         inkscape:export-xdpi="118.47272"
         inkscape:export-filename="/Users/KesieV/Desktop/htdocs/wright/__DELME/beenary/libs/images/logo.png"
         d="m 82.521484,187.19922 c -0.222187,-0.009 -0.422265,0.005 -0.599609,0.0234 l 0.154297,-0.008 H 57.011719 a 1.489343,1.489343 0 0 0 -0.197266,0.0137 h -5.355469 c -0.77916,0 -1.450595,-0.007 -2.207031,0.56054 -0.521239,0.39091 -0.907148,1.05749 -0.992187,1.69532 a 1.489343,1.489343 0 0 0 -0.0098,0.0918 c -0.03286,0.46001 0.01993,0.90774 0.121094,1.36328 0.06009,0.27042 0.09601,0.5346 0.111328,0.79688 v 12.66406 c 0,1.11205 0.435819,2.22292 1.222656,3.00977 0.785541,0.78553 1.895219,1.22461 3.009766,1.22461 1.098949,0 2.190393,-0.44402 2.96875,-1.2168 0.324084,-0.31479 0.551105,-0.71064 0.755859,-1.11328 l 1.1875,1.11133 -0.03516,-0.0352 c 0.799214,0.7992 1.917761,1.28367 3.046875,1.25391 1.083311,-0.0286 2.141266,-0.48163 2.921875,-1.23438 a 1.489343,1.489343 0 0 0 0.05859,-0.0586 c 0.383115,-0.41258 0.675146,-0.90597 0.875,-1.4375 0.129715,-0.31506 0.151985,-0.65474 0.207031,-0.98828 0.114821,0.9309 0.463304,1.83439 1.125,2.49609 0.786841,0.78682 1.897705,1.22266 3.009766,1.22266 h 6.77539 c 0.549444,0 1.103302,-0.10295 1.617188,-0.31446 a 1.489343,1.489343 0 0 0 0.03906,-0.0156 c 0.489753,-0.21767 0.942978,-0.51137 1.324219,-0.89258 0.380373,-0.38038 0.678419,-0.83908 0.886719,-1.33203 0.239848,-0.5234 0.367187,-1.10065 0.367187,-1.67774 0,-1.12233 -0.462456,-2.23745 -1.265625,-3.01757 -0.440079,-0.43692 -0.988655,-0.73399 -1.574219,-0.93946 0.196381,-0.26595 0.416729,-0.51693 0.544922,-0.82031 0.23984,-0.52338 0.367188,-1.10064 0.367188,-1.67773 0,-0.88715 -0.355794,-1.72279 -0.873047,-2.43946 l 2.222656,-0.0176 3.722656,10.28711 a 1.489343,1.489343 0 0 0 0.0039,0.008 c 0.375167,1.01831 1.092515,1.9004 2.041015,2.40429 a 1.489343,1.489343 0 0 0 0.01758,0.01 c 0.986771,0.50833 2.188949,0.54175 3.236328,0.16601 0.54032,-0.17567 1.047757,-0.45273 1.462891,-0.83593 a 1.489343,1.489343 0 0 0 0.0039,-0.002 c 0.390339,-0.36245 0.721153,-0.79192 0.960938,-1.27148 a 1.489343,1.489343 0 0 0 0.03125,-0.0684 l 0.40625,-0.92578 0.396484,0.91797 a 1.489343,1.489343 0 0 0 0.03516,0.0762 c 0.230804,0.46159 0.53778,0.87568 0.894531,1.23242 a 1.489343,1.489343 0 0 0 0.08398,0.0781 c 0.430061,0.36863 0.945343,0.63066 1.492188,0.80078 1.04009,0.36973 2.23782,0.33919 3.210937,-0.17774 0.948493,-0.50389 1.665848,-1.38597 2.041016,-2.40429 a 1.489343,1.489343 0 0 0 0.002,-0.006 l 3.757813,-10.31446 h 3.09961 l 0.0488,8.9375 c 10e-6,1.10198 0.41476,2.19995 1.17578,2.99024 0.77197,0.80165 1.88794,1.24219 3,1.24219 1.09641,0 2.19408,-0.44604 2.95898,-1.23438 0.77928,-0.78496 1.2168,-1.88827 1.2168,-2.99805 l 0.0488,-8.9375 h 2.38867 v 8.93555 c 0,1.11455 0.43908,2.22423 1.22461,3.00977 0.78424,0.78422 1.89327,1.22461 3.00781,1.22461 1.09895,0 2.19039,-0.44402 2.96875,-1.2168 0.32408,-0.31479 0.55111,-0.71064 0.75586,-1.11328 l 1.1875,1.11133 -0.0352,-0.0352 c 0.80044,0.80043 1.91965,1.28367 3.04883,1.25391 1.08333,-0.0286 2.14128,-0.48164 2.92188,-1.23438 a 1.489343,1.489343 0 0 0 0.0586,-0.0586 c 0.38567,-0.41532 0.6748,-0.91003 0.87305,-1.4375 0.21273,-0.51676 0.33984,-1.06612 0.33984,-1.6211 0,-0.5492 -0.10264,-1.1029 -0.31445,-1.61718 -0.1901,-0.46169 -0.56213,-0.81414 -0.93359,-1.14649 0.27259,-0.29005 0.49601,-0.61855 0.72265,-0.94531 1.20654,4.59431 5.21621,8.06756 10.17969,8.06055 5.89284,-0.007 10.6949,-4.82411 10.68555,-10.7168 -0.008,-5.44602 -4.15652,-9.84898 -9.43555,-10.49414 a 1.489343,1.489343 0 0 0 -0.75586,-0.20899 h -43.25 l 0.15234,0.008 c -0.740069,-0.0759 -1.510837,0.0509 -2.195309,0.37304 -1.000463,0.4708 -1.779386,1.36409 -2.164063,2.40821 a 1.489343,1.489343 0 0 0 -0.01172,0.0312 l -1.267578,3.68945 c -0.291844,-0.69881 -0.72112,-1.35599 -1.347656,-1.78906 -0.630143,-0.45299 -1.388955,-0.74 -2.166016,-0.77149 h -0.002 c -0.796132,-0.0315 -1.597744,0.21315 -2.263672,0.64453 -0.691694,0.44189 -1.114771,1.15794 -1.416015,1.90821 l -1.279297,-3.67969 -0.002,-0.006 c -0.364754,-1.06107 -1.164592,-1.96989 -2.183594,-2.4375 -0.495683,-0.23158 -1.036178,-0.37171 -1.583984,-0.39453 a 1.489343,1.489343 0 0 0 -0.0039,0 z m 62.742186,6.57812 c 0.004,-0.10719 0.0593,-0.0691 -0.0781,0.26563 -4.3e-4,0.001 -0.003,9.2e-4 -0.004,0.002 -0.004,-0.0568 0.081,-0.23938 0.082,-0.26758 z m -1.8457,0.87891 c 0.22966,0.14381 0.24221,0.10665 0.39258,0.16406 -0.004,-0.002 -0.056,-0.007 -0.0527,-0.006 z m -66.773439,0.26172 0.01953,0.0195 c -0.0033,-0.003 -0.0084,-0.004 -0.01172,-0.008 -0.0034,-0.003 -0.0044,-0.008 -0.0078,-0.0117 z m 65.343749,0.29101 c 0.27586,0.0601 0.62044,0.24399 0.79492,0.24414 0.34716,3.2e-4 0.55907,0.007 0.46289,-0.01 l -0.16015,-0.0371 c 0.19969,0.0585 0.46206,0.11873 0.83398,0.0508 0.0682,-0.0125 0.11818,-0.0952 0.18946,-0.12109 0.20036,0.34629 0.4144,0.58507 0.52148,0.68359 a 1.489343,1.489343 0 0 0 0.24414,0.18164 c -0.44896,-0.26856 -0.14589,-0.0589 0.19531,0.27735 0.084,0.0828 0.33735,0.17275 0.48828,0.27539 a 1.489343,1.489343 0 0 0 -0.0508,0.25195 c -0.0567,0.52556 -0.0313,1.23818 0.16602,1.99219 -0.79443,0.45231 -1.22982,1.04204 -1.5,1.35547 a 1.489343,1.489343 0 0 0 -0.19141,0.28515 c -0.0516,-0.0118 -0.13282,-0.0888 -0.17578,-0.0957 -0.53164,-0.0848 -0.7732,-0.0317 -0.63476,-0.0215 a 1.489343,1.489343 0 0 0 -0.29688,0.008 c -0.0513,-0.005 -0.1363,-0.0165 -0.29492,-0.0254 -0.15198,-0.009 -0.41111,0.009 -0.72852,0.0957 -0.43381,-0.67125 -0.97607,-1.15084 -1.47656,-1.51953 a 1.489343,1.489343 0 0 0 -0.11523,-0.0781 c 0.18353,-0.81833 0.13109,-1.54489 0.10156,-1.93359 a 1.489343,1.489343 0 0 0 -0.041,-0.25391 c 0.80802,-0.41818 1.24167,-1.00878 1.48633,-1.31445 a 1.489343,1.489343 0 0 0 0.18164,-0.29102 z m -85.039061,0.3418 h 0.002 a 1.489343,1.489343 0 0 0 0.002,0 c 0.172509,0.006 0.214194,0.0169 0.375,0.17774 a 1.489343,1.489343 0 0 0 0.05273,0.0508 c 0.148297,0.13417 0.125,0.10059 0.125,0.24023 0,0.13962 0.03551,0.0728 -0.09375,0.18359 a 1.489343,1.489343 0 0 0 -0.02734,0.0234 c -0.151261,0.13614 -0.222097,0.16606 -0.431641,0.17383 a 1.489343,1.489343 0 0 0 -0.002,0 h -0.002 z m 68.523441,0 h 0.004 a 1.489343,1.489343 0 0 0 0.002,0 c 0.17238,0.006 0.21049,0.0152 0.37304,0.17774 a 1.489343,1.489343 0 0 0 0.0527,0.0508 c 0.14829,0.13417 0.125,0.10058 0.125,0.24023 0,0.13963 0.0355,0.0728 -0.0937,0.18359 a 1.489343,1.489343 0 0 0 -0.0274,0.0234 c -0.15308,0.13778 -0.22027,0.16606 -0.42968,0.17383 a 1.489343,1.489343 0 0 0 -0.002,0 h -0.004 z m 22.26757,0.9375 -0.82226,0.45313 c -0.0785,0.0145 -0.18999,-0.0653 -0.30274,-0.084 0.42574,-0.083 0.90283,-0.12885 1.125,-0.36914 z m -1.47656,0.94922 c 0.02,0.0298 -7e-4,0.0174 0.0215,0.0488 l -0.0156,-0.0215 c -0.003,-0.005 -0.003,-0.0222 -0.006,-0.0273 z m -81.541014,2.5957 -0.02148,0.0371 c 0.0041,-0.007 0.0056,-0.0147 0.0098,-0.0215 0.0033,-0.006 0.0084,-0.01 0.01172,-0.0156 z m 68.523434,0 -0.0215,0.0371 c 0.004,-0.007 0.006,-0.0147 0.01,-0.0215 0.003,-0.006 0.008,-0.01 0.0117,-0.0156 z m -68.644528,0.15821 v 2.90429 c -0.0412,-0.1408 -0.02824,-0.29431 -0.08398,-0.42968 -0.189903,-0.46122 -0.562644,-0.81235 -0.933594,-1.14454 0.383796,-0.40808 0.725548,-0.85102 1.017578,-1.33007 z m 80.226558,0.43359 c -0.078,0.0293 -0.052,0.0306 -0.11718,0.0586 0.003,-0.002 0.0106,-0.0142 0.0137,-0.0156 z m -3.61523,0.61328 c -0.23508,0.26289 -0.5521,0.44049 -0.59375,0.74024 l 0.006,-0.043 c 0.0232,-0.13686 0.29517,-0.48444 0.58789,-0.69727 z m -77.751952,0.45117 -0.02539,0.0254 c 0.004,-0.004 0.0058,-0.01 0.0098,-0.0137 0.0046,-0.005 0.01104,-0.007 0.01563,-0.0117 z m 68.523442,0 -0.0254,0.0254 c 0.004,-0.004 0.006,-0.01 0.01,-0.0137 0.005,-0.005 0.011,-0.007 0.0156,-0.0117 z"
         id="path1220"
         style="font-style:normal;font-variant:normal;font-weight:normal;font-stretch:normal;font-size:medium;line-height:125%;font-family:bubbleboddy;-inkscape-font-specification:bubbleboddy;font-variant-ligatures:normal;font-variant-caps:normal;font-variant-numeric:normal;font-feature-settings:normal;text-align:center;letter-spacing:-1.1932708px;word-spacing:0px;writing-mode:lr-tb;text-anchor:middle;fill:#eeeeee;fill-opacity:1;stroke:none;stroke-width:0.91264743px;stroke-linecap:butt;stroke-linejoin:miter;stroke-opacity:1"
         inkscape:original="M 82.462891 188.6875 C 82.335436 188.6825 82.206202 188.68962 82.076172 188.70312 L 57.011719 188.70312 L 57.025391 188.71875 C 57.019691 188.71874 57.013542 188.7168 57.007812 188.7168 L 51.458984 188.7168 C 50.816481 188.7168 50.378168 188.80524 50.144531 188.98047 C 49.910893 189.15569 49.775266 189.38959 49.736328 189.68164 C 49.716858 189.95422 49.746389 190.26673 49.824219 190.61719 C 49.902099 190.96765 49.951233 191.31751 49.970703 191.66797 L 49.970703 204.40039 C 49.970703 205.17918 50.232128 205.83173 50.757812 206.35742 C 51.283498 206.8831 51.936051 207.14648 52.714844 207.14648 C 53.474167 207.14648 54.116894 206.8831 54.642578 206.35742 C 55.187734 205.83173 55.460938 205.17918 55.460938 204.40039 L 55.460938 203.34961 L 58.644531 206.32812 C 59.209157 206.89274 59.859754 207.16598 60.599609 207.14648 C 61.33946 207.12698 61.982188 206.85382 62.527344 206.32812 C 62.780452 206.05555 62.976991 205.73321 63.113281 205.36328 C 63.269038 204.99335 63.345703 204.63366 63.345703 204.2832 C 63.345703 203.91327 63.276915 203.5634 63.140625 203.23242 C 63.004336 202.90142 62.780268 202.62823 62.46875 202.41406 L 61.126953 201.65625 C 61.574758 201.40314 61.993417 201.07098 62.382812 200.66211 C 62.791679 200.25324 63.141547 199.79528 63.433594 199.28906 C 63.745109 198.78285 63.988834 198.24822 64.164062 197.68359 C 64.339296 197.11897 64.425781 196.54503 64.425781 195.96094 C 64.425781 195.32516 64.348874 194.71276 64.195312 194.12305 L 66.089844 194.10742 L 66.089844 204.40234 C 66.089844 205.18112 66.353221 205.83369 66.878906 206.35938 C 67.404593 206.88505 68.057145 207.14648 68.835938 207.14648 L 75.611328 207.14648 C 75.981255 207.14648 76.33112 207.07959 76.662109 206.94336 C 77.012565 206.7876 77.305424 206.593 77.539062 206.35938 C 77.79217 206.10627 77.986758 205.81341 78.123047 205.48242 C 78.278805 205.15143 78.357422 204.79173 78.357422 204.40234 C 78.357422 203.62355 78.084218 202.971 77.539062 202.44531 C 77.013378 201.91964 76.370651 201.65625 75.611328 201.65625 L 71.582031 201.65625 L 71.582031 200.69336 L 73.683594 200.69336 C 74.053521 200.69336 74.403389 200.62462 74.734375 200.48828 C 75.084831 200.33252 75.377691 200.13794 75.611328 199.9043 C 75.864437 199.65119 76.059022 199.35833 76.195312 199.02734 C 76.351069 198.69635 76.429688 198.33666 76.429688 197.94727 C 76.429688 197.16848 76.156484 196.51592 75.611328 195.99023 C 75.085643 195.46454 74.442919 195.20117 73.683594 195.20117 L 71.582031 195.20117 L 71.582031 194.0625 L 80.308594 193.99219 L 84.390625 205.26953 C 84.663201 206.00938 85.111339 206.54401 85.734375 206.875 C 86.376878 207.20598 87.068739 207.2355 87.808594 206.96289 C 88.178518 206.84607 88.489079 206.66919 88.742188 206.43555 C 89.014764 206.18245 89.229009 205.90135 89.384766 205.58984 L 91.166016 201.53125 L 92.917969 205.58984 C 93.073729 205.90135 93.280098 206.18245 93.533203 206.43555 C 93.805777 206.66919 94.13599 206.84607 94.525391 206.96289 C 95.265242 207.23548 95.945327 207.20596 96.568359 206.875 C 97.191392 206.54401 97.639536 206.00938 97.912109 205.26953 L 102.02539 193.97656 L 107.64844 193.97656 L 107.70508 204.40234 C 107.70509 205.18112 107.95862 205.83369 108.46484 206.35938 C 108.97105 206.88505 109.61379 207.14648 110.39258 207.14648 C 111.1519 207.14648 111.78481 206.88505 112.29102 206.35938 C 112.81671 205.83369 113.08008 205.18112 113.08008 204.40234 L 113.13672 193.97656 L 118.49414 193.97656 L 118.49414 204.40039 C 118.49414 205.17918 118.75752 205.83173 119.2832 206.35742 C 119.80889 206.8831 120.45949 207.14648 121.23828 207.14648 C 121.9976 207.14648 122.64033 206.8831 123.16602 206.35742 C 123.71117 205.83173 123.98438 205.17918 123.98438 204.40039 L 123.98438 203.34961 L 127.16797 206.32812 C 127.73259 206.89274 128.38515 207.16598 129.125 207.14648 C 129.86485 207.12698 130.50758 206.85381 131.05273 206.32812 C 131.30584 206.05555 131.50043 205.73321 131.63672 205.36328 C 131.79246 204.99335 131.86914 204.63366 131.86914 204.2832 C 131.86914 203.91327 131.80234 203.5634 131.66602 203.23242 C 131.52973 202.90142 131.30566 202.62823 130.99414 202.41406 L 129.65039 201.65625 C 130.09821 201.40314 130.51686 201.07098 130.90625 200.66211 C 131.31512 200.25324 131.66498 199.79528 131.95703 199.28906 C 132.26855 198.78285 132.51227 198.24822 132.6875 197.68359 C 132.86274 197.11897 132.94922 196.54503 132.94922 195.96094 C 132.94922 195.27226 132.85786 194.61119 132.67773 193.97656 L 134.67578 193.97656 C 134.10277 195.17962 133.78327 196.52586 133.78516 197.94727 C 133.79216 203.03624 137.91991 207.15367 143.00977 207.14648 C 148.09694 207.14048 152.21706 203.0073 152.20898 197.91992 C 152.20198 192.9972 148.33259 188.98047 143.47461 188.73242 L 143.50586 188.70312 L 100.25586 188.70312 C 99.768379 188.65312 99.298945 188.73096 98.847656 188.94336 C 98.185685 189.25487 97.717891 189.77968 97.445312 190.51953 L 94.845703 198.08398 L 93.501953 194.4043 C 93.307262 193.85915 92.996701 193.44048 92.568359 193.14844 C 92.140028 192.83692 91.682058 192.67181 91.195312 192.65234 C 90.708568 192.63284 90.240774 192.76851 89.792969 193.06055 C 89.364632 193.33314 89.044245 193.78127 88.830078 194.4043 L 87.515625 198.08398 L 84.886719 190.51953 C 84.633613 189.77968 84.16777 189.25487 83.486328 188.94336 C 83.155342 188.7876 82.813347 188.7021 82.462891 188.6875 z M 144.00586 193.35742 C 144.07496 193.35542 144.14368 193.37373 144.20898 193.39453 C 144.60089 193.63994 145.4345 193.66477 145.4707 194.22852 C 145.17461 194.47614 145.41301 194.71622 145.63867 194.92383 C 145.93813 195.10296 146.27644 195.87677 146.64648 195.47656 C 147.2232 195.36979 147.26088 196.28711 147.50195 196.62891 C 147.7576 197.00587 147.33881 197.27423 146.98828 197.16602 C 146.93308 197.67731 146.91624 198.30514 147.09766 198.80078 C 147.9131 198.85048 147.31062 199.64062 147.17773 200.10742 C 147.12123 200.53968 146.66003 200.57143 146.44727 200.23438 C 146.00297 200.45834 145.6374 200.93793 145.30273 201.32617 C 145.37663 201.52826 145.73045 201.84363 145.35156 202.01953 C 144.90994 202.18544 144.23412 202.80545 143.8125 202.3457 C 143.8696 201.8885 143.36397 202.02816 143.0625 202.00586 C 142.79572 202.09106 142.14395 201.82231 142.09375 202.18359 C 141.98169 202.84563 141.15737 202.31025 140.80664 202.16797 C 140.41512 202.09357 140.31042 201.66581 140.63867 201.43945 C 140.36308 200.99473 139.92146 200.59553 139.49219 200.2793 C 139.19121 200.73663 138.74849 200.36872 138.67969 199.94727 C 138.48061 199.62624 138.16164 198.78798 138.83789 198.83008 C 139.00443 198.35628 138.91685 197.70679 138.87695 197.18164 C 138.43958 197.24314 138.28891 196.74745 138.51953 196.42188 C 138.66227 196.03814 138.92967 195.2001 139.46484 195.64062 C 139.94439 195.48389 140.32575 194.96859 140.64453 194.57031 C 140.25988 194.26865 140.52661 193.76651 140.95703 193.69531 C 141.31218 193.55924 142.10355 193.11443 142.12695 193.80078 C 142.47253 194.07473 143.07714 193.90076 143.50586 193.97656 C 144.00809 194.1238 143.55673 193.36443 144.00586 193.35742 z M 55.460938 194.00391 L 57.007812 194.0625 C 57.533496 194.082 57.991464 194.28638 58.380859 194.67578 C 58.789725 195.04571 58.994141 195.49384 58.994141 196.01953 C 58.994141 196.54521 58.789725 196.98352 58.380859 197.33398 C 57.991464 197.68444 57.533497 197.86917 57.007812 197.88867 L 55.460938 197.94727 L 55.460938 194.00391 z M 123.98438 194.00391 L 125.5332 194.0625 C 126.05889 194.082 126.51491 194.28638 126.9043 194.67578 C 127.31317 195.04571 127.51758 195.49384 127.51758 196.01953 C 127.51758 196.54521 127.31317 196.98352 126.9043 197.33398 C 126.51491 197.68444 126.05889 197.86917 125.5332 197.88867 L 123.98438 197.94727 L 123.98438 194.00391 z "
         inkscape:radius="1.489194"
         sodipodi:type="inkscape:offset" />
      <path
         inkscape:export-ydpi="118.47272"
         inkscape:export-xdpi="118.47272"
         inkscape:export-filename="/Users/KesieV/Desktop/htdocs/wright/__DELME/beenary/libs/images/logo.png"
         inkscape:connector-curvature="0"
         id="path1185"
         d="m 82.4637,188.68719 c -0.127455,-0.005 -0.257027,0.002 -0.387057,0.0155 H 57.01099 l 0.01447,0.0155 c -0.0057,-1e-5 -0.01132,-5.1e-4 -0.01705,-5.1e-4 h -5.549014 c -0.642503,0 -1.080495,0.0878 -1.314132,0.26303 -0.233638,0.17522 -0.369822,0.40868 -0.40876,0.70073 -0.01947,0.27258 0.0095,0.58437 0.08733,0.93483 0.07788,0.35046 0.126773,0.70064 0.146243,1.0511 v 12.73307 c 0,0.77879 0.262898,1.4313 0.788583,1.95699 0.525685,0.52568 1.177676,0.78858 1.956469,0.78858 0.759323,0 1.401848,-0.2629 1.927532,-0.78858 0.545156,-0.52569 0.818036,-1.1782 0.818036,-1.95699 v -1.0511 l 3.183269,2.97863 c 0.564626,0.56462 1.216617,0.83754 1.956472,0.81804 0.739851,-0.0195 1.382373,-0.29235 1.927529,-0.81804 0.253108,-0.27257 0.448172,-0.59383 0.584462,-0.96376 0.155757,-0.36993 0.233577,-0.7301 0.233577,-1.08056 0,-0.36993 -0.06835,-0.72011 -0.20464,-1.05109 -0.136289,-0.331 -0.360275,-0.60387 -0.671793,-0.81804 l -1.34307,-0.75913 c 0.447805,-0.25311 0.866341,-0.58383 1.255737,-0.9927 0.408866,-0.40887 0.759052,-0.86683 1.051099,-1.37305 0.311515,-0.50621 0.554959,-1.04147 0.730187,-1.6061 0.175233,-0.56462 0.263033,-1.1388 0.263033,-1.72289 0,-0.63578 -0.07743,-1.24842 -0.230992,-1.83813 l 1.894975,-0.0155 v 10.29447 c 0,0.77878 0.262895,1.43129 0.78858,1.95698 0.525687,0.52568 1.177679,0.78858 1.956472,0.78858 h 6.775812 c 0.369927,0 0.720111,-0.0684 1.0511,-0.20463 0.350456,-0.15576 0.642794,-0.35032 0.876432,-0.58395 0.253108,-0.25311 0.447654,-0.54544 0.583943,-0.87643 0.155758,-0.33099 0.233577,-0.69116 0.233577,-1.08055 0,-0.77879 -0.272364,-1.43079 -0.81752,-1.95648 -0.525685,-0.52567 -1.168209,-0.78858 -1.927532,-0.78858 H 71.58116 v -0.96376 h 2.102712 c 0.369927,0 0.720114,-0.0683 1.0511,-0.20464 0.350456,-0.15576 0.642795,-0.3503 0.876432,-0.58394 0.253109,-0.25311 0.447654,-0.54493 0.583944,-0.87592 0.155757,-0.33099 0.233576,-0.69116 0.233576,-1.08055 0,-0.77879 -0.272364,-1.4313 -0.81752,-1.95699 -0.525685,-0.52569 -1.168207,-0.78858 -1.927532,-0.78858 H 71.58116 v -1.13895 l 8.728149,-0.0703 4.081404,11.2758 c 0.272576,0.73985 0.720553,1.27511 1.343589,1.6061 0.642503,0.33098 1.33392,0.35991 2.073775,0.0873 0.369924,-0.11682 0.681201,-0.29191 0.934309,-0.52555 0.272577,-0.2531 0.48658,-0.53546 0.642337,-0.84697 l 1.781805,-4.05919 1.752346,4.05919 c 0.15576,0.31151 0.360294,0.59387 0.613399,0.84697 0.272574,0.23364 0.603306,0.40873 0.992707,0.52555 0.739851,0.27259 1.421286,0.24366 2.044318,-0.0873 0.623033,-0.33099 1.071013,-0.86625 1.343586,-1.6061 l 4.113446,-11.29234 h 5.62291 l 0.0568,10.42521 c 1e-5,0.77878 0.25291,1.43129 0.75913,1.95698 0.50621,0.52568 1.14874,0.78858 1.92753,0.78858 0.75932,0 1.39187,-0.2629 1.89808,-0.78858 0.52569,-0.52569 0.78858,-1.1782 0.78858,-1.95698 l 0.0568,-10.42521 h 5.35782 v 10.42417 c 0,0.77879 0.2629,1.4313 0.78858,1.95699 0.52569,0.52568 1.17768,0.78858 1.95647,0.78858 0.75932,0 1.40184,-0.2629 1.92753,-0.78858 0.54515,-0.52569 0.81752,-1.1782 0.81752,-1.95699 v -1.0511 l 3.18379,2.97863 c 0.56462,0.56462 1.21662,0.83754 1.95647,0.81804 0.73985,-0.0195 1.38238,-0.29235 1.92753,-0.81804 0.25311,-0.27257 0.44765,-0.59383 0.58394,-0.96376 0.15574,-0.36993 0.23358,-0.7301 0.23358,-1.08056 0,-0.36993 -0.0678,-0.72011 -0.20412,-1.05109 -0.13629,-0.331 -0.36028,-0.60387 -0.6718,-0.81804 l -1.34359,-0.75913 c 0.44782,-0.25311 0.86635,-0.58383 1.25574,-0.9927 0.40887,-0.40887 0.75957,-0.86683 1.05162,-1.37305 0.31152,-0.50621 0.55496,-1.04147 0.73019,-1.6061 0.17524,-0.56462 0.26251,-1.1388 0.26251,-1.72289 0,-0.68868 -0.0922,-1.34975 -0.27233,-1.98438 h 1.99833 c -0.57301,1.20306 -0.89331,2.54941 -0.89142,3.97082 0.007,5.08897 4.13541,9.20714 9.22527,9.19995 5.08717,-0.006 9.20649,-4.14047 9.19841,-9.22785 -0.007,-4.92272 -3.87586,-8.93796 -8.73384,-9.18601 l 0.032,-0.0305 h -43.25059 c -0.48748,-0.05 -0.957407,0.0279 -1.408696,0.2403 -0.661971,0.31151 -1.128884,0.83731 -1.401463,1.57716 l -2.599325,7.56388 -1.343589,-3.67988 c -0.194691,-0.54515 -0.505968,-0.96369 -0.93431,-1.25573 -0.428331,-0.31152 -0.886295,-0.47715 -1.373041,-0.49662 -0.486744,-0.0195 -0.953659,0.11672 -1.401464,0.40876 -0.428337,0.27259 -0.749599,0.72056 -0.963766,1.34359 l -1.314132,3.67988 -2.628781,-7.56388 c -0.253106,-0.73985 -0.720022,-1.26565 -1.401464,-1.57716 -0.330986,-0.15576 -0.671703,-0.2412 -1.022159,-0.2558 z m 61.54301,4.66948 c 0.0691,-0.002 0.13727,0.0164 0.20257,0.0372 0.39191,0.24541 1.22523,0.27031 1.26143,0.83406 -0.29609,0.24762 -0.0572,0.48899 0.16846,0.6966 0.29946,0.17913 0.63817,0.95263 1.00821,0.55242 0.57672,-0.10677 0.61366,0.8111 0.85473,1.1529 0.25565,0.37696 -0.16262,0.64461 -0.51315,0.5364 -0.0552,0.51129 -0.0729,1.1394 0.10852,1.63504 0.81544,0.0497 0.21249,0.8401 0.0796,1.3069 -0.0565,0.43226 -0.51691,0.46263 -0.72967,0.12557 -0.4443,0.22396 -0.80996,0.70369 -1.14463,1.09193 0.0739,0.20209 0.42699,0.51759 0.0481,0.69349 -0.44162,0.16591 -1.11731,0.78531 -1.53893,0.32556 0.0571,-0.4572 -0.44732,-0.31566 -0.74879,-0.33796 -0.26678,0.0852 -0.91873,-0.18455 -0.96893,0.17673 -0.11206,0.66204 -0.93705,0.12578 -1.28778,-0.0165 -0.39152,-0.0744 -0.49516,-0.50073 -0.16691,-0.72709 -0.27559,-0.44472 -0.71898,-0.84494 -1.14825,-1.16117 -0.30098,0.45733 -0.74201,0.0902 -0.81081,-0.33125 -0.19908,-0.32103 -0.51967,-1.15934 0.15658,-1.11724 0.16654,-0.4738 0.0792,-1.12436 0.0393,-1.64951 -0.43737,0.0615 -0.58719,-0.43303 -0.35657,-0.75861 0.14274,-0.38373 0.40999,-1.22188 0.94516,-0.78135 0.47955,-0.15673 0.86048,-0.67142 1.17926,-1.0697 -0.38465,-0.30166 -0.11675,-0.80368 0.31367,-0.87488 0.35515,-0.13607 1.14501,-0.58248 1.16841,0.10387 0.34558,0.27395 0.95155,0.0999 1.38027,0.1757 0.50223,0.14724 0.0511,-0.61208 0.50023,-0.61909 z m -88.546015,0.64699 1.54771,0.0584 c 0.525684,0.0195 0.983131,0.22399 1.372526,0.61339 0.408866,0.36993 0.613399,0.8179 0.613399,1.34359 0,0.52568 -0.204533,0.96367 -0.613399,1.31413 -0.389395,0.35046 -0.846842,0.53551 -1.372526,0.55501 l -1.54771,0.0584 z m 68.523465,0 1.54823,0.0584 c 0.52569,0.0195 0.98313,0.22399 1.37252,0.61339 0.40887,0.36993 0.6134,0.8179 0.6134,1.34359 0,0.52568 -0.20453,0.96367 -0.6134,1.31413 -0.38939,0.35046 -0.84683,0.53551 -1.37252,0.55501 l -1.54823,0.0584 z"
         style="font-style:normal;font-variant:normal;font-weight:normal;font-stretch:normal;font-size:medium;line-height:125%;font-family:bubbleboddy;-inkscape-font-specification:bubbleboddy;font-variant-ligatures:normal;font-variant-caps:normal;font-variant-numeric:normal;font-feature-settings:normal;text-align:center;letter-spacing:-1.1932708px;word-spacing:0px;writing-mode:lr-tb;text-anchor:middle;fill:#222831;fill-opacity:1;stroke:none;stroke-width:0.91264743px;stroke-linecap:butt;stroke-linejoin:miter;stroke-opacity:1" />
    </g>
    <g
       transform="translate(-1.948311,-6.79335)"
       id="g5928"
       style="fill:#00adb5;fill-opacity:1"
       inkscape:export-filename="C:\Users\kesie\Desktop\htdocs\wright\__DELME\beenary\carts\qrcart\logo.png"
       inkscape:export-xdpi="34.394817"
       inkscape:export-ydpi="34.394817">
      <path
         inkscape:connector-curvature="0"
         id="path5912"
         style="font-style:normal;font-variant:normal;font-weight:normal;font-stretch:normal;font-size:medium;line-height:125%;font-family:bubbleboddy;-inkscape-font-specification:bubbleboddy;font-variant-ligatures:normal;font-variant-caps:normal;font-variant-numeric:normal;font-feature-settings:normal;text-align:center;letter-spacing:-1.1932708px;word-spacing:0px;writing-mode:lr-tb;text-anchor:middle;fill:#00adb5;fill-opacity:1;stroke:none;stroke-width:0.91264743px;stroke-linecap:butt;stroke-linejoin:miter;stroke-opacity:1"
         d="m 81.597646,124.36203 c 0.759323,0 1.401826,0.26284 1.927511,0.78853 0.545155,0.52569 0.817732,1.17792 0.817732,1.95671 0,0.3894 -0.07788,0.74959 -0.233637,1.08058 -0.136289,0.33099 -0.330987,0.0939 -0.584095,0.34697 -0.233637,0.23364 -0.525684,0.42834 -0.876141,0.5841 -0.330987,0.13629 -0.681443,0.20443 -1.05137,0.20443 h -4.030251 v 1.49292 h 2.10274 c 0.759323,0 1.401826,0.26284 1.927511,0.78853 0.545155,0.52569 0.817732,1.17793 0.817732,1.95672 0,0.38939 -0.07788,0.74958 -0.233638,1.08057 -0.136289,0.33099 -0.330987,0.62303 -0.584094,0.87614 -0.233638,0.23364 -0.525685,0.42834 -0.876141,0.5841 -0.330987,0.13629 -0.681444,0.20443 -1.05137,0.20443 h -2.10274 v 0.96376 h 4.030251 c 0.759323,0 1.401826,0.26284 1.927511,0.78852 0.545155,0.52569 0.817732,1.17793 0.817732,1.95672 0,0.38939 -0.07788,0.74958 -0.233637,1.08057 -0.136289,0.33099 -0.330987,0.62304 -0.584095,0.87615 -0.233637,0.23363 -0.525684,0.42833 -0.876141,0.58409 -0.330987,0.13629 -0.681443,0.20443 -1.05137,0.20443 h -6.775494 c -0.778793,0 -1.431032,-0.26284 -1.956717,-0.78852 -0.525685,-0.52569 -0.788527,-1.17793 -0.788527,-1.95672 v -12.70405 c -0.01947,-0.35046 -0.06815,-0.70092 -0.146024,-1.05137 -0.07788,-0.35046 -0.107082,-0.66198 -0.08761,-0.93455 0.03894,-0.29205 0.175229,-0.52569 0.408866,-0.70092 0.233638,-0.17523 0.671709,-0.26284 1.314213,-0.26284 z"
         sodipodi:nodetypes="scscccsccscscccsccscscccsscsccccss" />
      <path
         inkscape:connector-curvature="0"
         id="path5914"
         style="font-style:normal;font-variant:normal;font-weight:normal;font-stretch:normal;font-size:medium;line-height:125%;font-family:bubbleboddy;-inkscape-font-specification:bubbleboddy;font-variant-ligatures:normal;font-variant-caps:normal;font-variant-numeric:normal;font-feature-settings:normal;text-align:center;letter-spacing:-1.1932708px;word-spacing:0px;writing-mode:lr-tb;text-anchor:middle;fill:#00adb5;fill-opacity:1;stroke:none;stroke-width:0.91264743px;stroke-linecap:butt;stroke-linejoin:miter;stroke-opacity:1"
         d="m 103.43184,126.13407 q 0.40887,-1.10978 1.40183,-1.57705 0.99296,-0.46728 2.10274,-0.0876 0.52568,0.17523 0.90534,0.55489 0.40887,0.35046 0.64251,0.81774 0.23363,0.46727 0.26284,1.02216 0.0292,0.55489 -0.14603,1.10978 l -4.70196,12.90849 q -0.40886,1.10978 -1.34341,1.60626 -0.93455,0.49648 -2.04433,0.0876 -0.584097,-0.17523 -0.992963,-0.52569 -0.379661,-0.37966 -0.613299,-0.84693 l -1.752283,-4.05946 -1.781488,4.05946 q -0.233638,0.46727 -0.642504,0.84693 -0.379661,0.35046 -0.934551,0.52569 -1.109779,0.40887 -2.073535,-0.0876 -0.934551,-0.49648 -1.343417,-1.60626 l -4.672755,-12.90849 q -0.175228,-0.55489 -0.146023,-1.10978 0.0292,-0.55489 0.262842,-1.02216 0.233638,-0.46728 0.613299,-0.81774 0.408866,-0.37966 0.934551,-0.55489 1.10978,-0.37966 2.10274,0.0876 1.022165,0.46727 1.401826,1.57705 l 2.628425,7.56403 1.314212,-3.6798 q 0.321252,-0.93455 0.963756,-1.34342 0.671708,-0.43807 1.401826,-0.40886 0.730118,0.0292 1.372622,0.49648 0.642504,0.43807 0.934551,1.2558 l 1.343418,3.6798 z" />
      <path
         inkscape:connector-curvature="0"
         id="path5916"
         style="font-style:normal;font-variant:normal;font-weight:normal;font-stretch:normal;font-size:medium;line-height:125%;font-family:bubbleboddy;-inkscape-font-specification:bubbleboddy;font-variant-ligatures:normal;font-variant-caps:normal;font-variant-numeric:normal;font-feature-settings:normal;text-align:center;letter-spacing:-1.1932708px;word-spacing:0px;writing-mode:lr-tb;text-anchor:middle;fill:#00adb5;fill-opacity:1;stroke:none;stroke-width:0.91264743px;stroke-linecap:butt;stroke-linejoin:miter;stroke-opacity:1"
         d="m 120.84745,124.36203 c 0.75932,0 1.40182,0.26284 1.92751,0.78853 0.54515,0.52569 0.81773,1.17792 0.81773,1.95671 0,0.3894 -0.0779,0.74959 -0.23363,1.08058 -0.13629,0.33099 -0.33099,0.0939 -0.5841,0.34697 -0.23364,0.23364 -0.52569,0.42834 -0.87614,0.5841 -0.33099,0.13629 -0.69774,0.0958 -1.05137,0.20443 h -1.72308 l -0.0584,10.69241 c 0,0.77879 -0.26284,1.43103 -0.78853,1.95672 -0.50621,0.52568 -1.13898,0.78852 -1.8983,0.78852 -0.77879,0 -1.4213,-0.26284 -1.92751,-0.78852 -0.50622,-0.52569 -0.75933,-1.17793 -0.75933,-1.95672 l -0.0584,-10.69241 h -1.72307 c -0.77879,0 -1.43103,0.26633 -1.95672,-0.25936 -0.52569,-0.54515 -0.78853,-1.19739 -0.78853,-1.95672 0,-0.77879 0.26284,-1.43102 0.78853,-1.95671 0.52569,-0.52569 1.17793,-0.78853 1.95672,-0.78853 z"
         sodipodi:nodetypes="scscscscccssccscssss" />
      <path
         inkscape:connector-curvature="0"
         id="path5918"
         style="font-style:normal;font-variant:normal;font-weight:normal;font-stretch:normal;font-size:medium;line-height:125%;font-family:bubbleboddy;-inkscape-font-specification:bubbleboddy;font-variant-ligatures:normal;font-variant-caps:normal;font-variant-numeric:normal;font-feature-settings:normal;text-align:center;letter-spacing:-1.1932708px;word-spacing:0px;writing-mode:lr-tb;text-anchor:middle;fill:#00adb5;fill-opacity:1;stroke:none;stroke-width:0.91264743px;stroke-linecap:butt;stroke-linejoin:miter;stroke-opacity:1"
         d="m 129.97074,138.96341 v 1.05137 c 0,0.77879 -0.27258,1.43103 -0.81773,1.95672 -0.52569,0.52568 -1.16819,0.78852 -1.92751,0.78852 -0.77879,0 -1.43103,-0.26284 -1.95672,-0.78852 -0.52568,-0.52569 -0.78852,-1.17793 -0.78852,-1.95672 v -12.90849 c -0.0195,-0.35045 -0.0681,-0.70091 -0.14603,-1.05137 -0.0779,-0.35045 -0.10708,-0.1328 -0.0876,-0.40538 0.0389,-0.29205 0.17522,-0.52569 0.40886,-0.70091 0.23364,-0.17523 0.67171,-0.26284 1.31422,-0.26284 h 5.54889 c 1.01243,0 1.96645,0.19469 2.86206,0.58409 0.91509,0.3894 1.70362,0.39565 2.36559,1.07709 0.68144,0.66197 1.21686,1.4505 1.60626,2.36558 0.38939,0.89561 0.58409,1.84964 0.58409,2.86207 0,0.58409 -0.0876,1.15845 -0.26284,1.72307 -0.17523,0.56463 -0.4186,1.10005 -0.73012,1.60626 -0.29205,0.50622 -0.6425,0.96376 -1.05137,1.37263 -0.38939,0.40887 -0.80799,0.73985 -1.2558,0.99296 l 1.34341,0.75932 c 0.31152,0.21417 0.53542,0.48674 0.67171,0.81773 0.13629,0.33099 0.20444,0.68144 0.20444,1.05137 0,0.35046 -0.0779,0.71065 -0.23364,1.08058 -0.13629,0.36993 -0.33099,0.69118 -0.5841,0.96375 -0.54515,0.52569 -1.18766,0.79826 -1.92751,0.81773 -0.73985,0.0195 -1.39209,-0.25311 -1.95671,-0.81773 z m 3.53377,-7.33038 c 0,-0.52569 -0.20443,-0.97349 -0.6133,-1.34342 -0.38939,-0.3894 -0.84693,-0.59383 -1.37262,-0.6133 l -1.54785,-0.0584 v 3.94264 l 1.54785,-0.0584 c 0.52569,-0.0195 0.98323,-0.20443 1.37262,-0.55489 0.40887,-0.35046 0.6133,-0.78853 0.6133,-1.31421 z"
         sodipodi:nodetypes="cscscscccssscccsccccccsccsccsccccccss" />
      <path
         inkscape:connector-curvature="0"
         style="fill:#00adb5;fill-opacity:1;stroke-width:0.84872836"
         d="m 563.04102,469.92773 c -19.23391,0.0189 -34.79892,15.6372 -34.77344,34.8711 0.0265,19.2339 15.62992,34.79866 34.86719,34.77148 19.22709,-0.0227 34.79616,-15.64902 34.76562,-34.87695 -0.0265,-19.22627 -15.64074,-34.7911 -34.85937,-34.76563 z m 3.86132,17.52149 c 0.26117,-0.009 0.51883,0.062 0.76563,0.14062 1.48123,0.92754 4.63076,1.02164 4.76758,3.15235 -1.11905,0.93588 -0.21617,1.84814 0.63672,2.63281 1.13181,0.67706 2.41197,3.6005 3.81054,2.08789 2.17973,-0.40354 2.31934,3.06558 3.23047,4.35742 0.96624,1.42473 -0.61461,2.43633 -1.93945,2.02735 -0.20867,1.93243 -0.27541,4.3064 0.41015,6.17968 3.08198,0.18796 0.8032,3.17517 0.30079,4.93946 -0.21351,1.63374 -1.95368,1.74857 -2.75782,0.47461 -1.67924,0.8465 -3.06127,2.65962 -4.32617,4.12695 0.27931,0.76384 1.61397,1.95624 0.18164,2.62109 -1.66904,0.62703 -4.22288,2.96811 -5.8164,1.23047 0.21584,-1.728 -1.69067,-1.19306 -2.83008,-1.27734 -1.0083,0.32201 -3.47238,-0.6975 -3.66211,0.66797 -0.42354,2.50223 -3.5416,0.47551 -4.86719,-0.0625 -1.47976,-0.28128 -1.87149,-1.89252 -0.63086,-2.74805 -1.0416,-1.68083 -2.71733,-3.19347 -4.33984,-4.38867 -1.13753,1.72849 -2.80442,0.34085 -3.06446,-1.25195 -0.75242,-1.21335 -1.9641,-4.38178 0.5918,-4.22266 0.62944,-1.79074 0.29924,-4.24956 0.14844,-6.23438 -1.65302,0.2326 -2.21929,-1.63665 -1.34766,-2.86718 0.53949,-1.45032 1.54958,-4.61812 3.57227,-2.95313 1.81247,-0.59236 3.25219,-2.53766 4.45703,-4.04297 -1.4538,-1.14013 -0.44124,-3.03754 1.18555,-3.30664 1.3423,-0.51428 4.32757,-2.2015 4.41601,0.39258 1.30613,1.0354 3.59644,0.37757 5.2168,0.66406 1.89819,0.5565 0.1932,-2.31338 1.89062,-2.33984 z"
         transform="scale(0.26458333)"
         id="path5920" />
      <path
         style="opacity:1;fill:#00adb5;fill-opacity:1;fill-rule:nonzero;stroke:none;stroke-width:0.46502906;stroke-linecap:square;stroke-linejoin:round;stroke-miterlimit:4;stroke-dasharray:none;stroke-dashoffset:15.11811066;stroke-opacity:1;paint-order:markers fill stroke"
         d="m 105.98764,124.3166 h 43.50509 l -5.55625,5.27354 h -37.94884 z"
         id="path5922"
         inkscape:connector-curvature="0"
         sodipodi:nodetypes="ccccc" />
      <path
         style="opacity:1;fill:#00adb5;fill-opacity:1;fill-rule:nonzero;stroke:none;stroke-width:0.35522261;stroke-linecap:square;stroke-linejoin:round;stroke-miterlimit:4;stroke-dasharray:none;stroke-dashoffset:15.11811066;stroke-opacity:1;paint-order:markers fill stroke"
         d="m 62.997604,124.3166 h 25.385229 v 5.27354 l -20.329578,0.16358 z"
         id="path5924"
         inkscape:connector-curvature="0"
         sodipodi:nodetypes="ccccc" />
      <path
         inkscape:connector-curvature="0"
         id="path5926"
         style="font-style:normal;font-variant:normal;font-weight:normal;font-stretch:normal;font-size:medium;line-height:125%;font-family:bubbleboddy;-inkscape-font-specification:bubbleboddy;font-variant-ligatures:normal;font-variant-caps:normal;font-variant-numeric:normal;font-feature-settings:normal;text-align:center;letter-spacing:-1.1932708px;word-spacing:0px;writing-mode:lr-tb;text-anchor:middle;fill:#00adb5;fill-opacity:1;stroke:none;stroke-width:0.91264743px;stroke-linecap:butt;stroke-linejoin:miter;stroke-opacity:1"
         d="m 61.446962,138.96341 v 1.05137 c 0,0.77879 -0.272577,1.43103 -0.817732,1.95672 -0.525685,0.52568 -1.168188,0.78852 -1.927511,0.78852 -0.778793,0 -1.431031,-0.26284 -1.956716,-0.78852 -0.525685,-0.52569 -0.788528,-1.17793 -0.788528,-1.95672 v -12.73309 c -0.01947,-0.35046 -0.06814,-0.70091 -0.146023,-1.05137 -0.07788,-0.35046 -0.107083,-0.66197 -0.08761,-0.93455 0.03894,-0.29205 0.175229,-0.52569 0.408866,-0.70091 0.233637,-0.17523 0.671708,-0.26284 1.314212,-0.26284 h 5.548896 c 1.012431,0 1.966452,0.19469 2.862063,0.58409 0.915081,0.3894 1.703608,0.92482 2.365582,1.60626 0.681443,0.66197 1.216863,1.2751 1.606259,2.19018 0.389397,0.89561 0.584095,1.84964 0.584095,2.86207 0,0.58409 -0.08761,1.15845 -0.262843,1.72307 -0.175228,0.56463 -0.418601,1.10005 -0.730118,1.60626 -0.292047,0.50622 -0.642503,0.96376 -1.05137,1.37263 -0.389396,0.40887 -0.807997,0.73985 -1.255802,0.99296 l 1.343417,0.75932 c 0.311517,0.21417 0.535419,0.48674 0.671708,0.81773 0.136289,0.33099 0.204433,0.68144 0.204433,1.05137 0,0.35046 -0.07788,0.71065 -0.233638,1.08058 -0.136289,0.36993 -0.330987,0.69118 -0.584094,0.96375 -0.545155,0.52569 -1.187658,0.79826 -1.927511,0.81773 -0.739853,0.0195 -1.392092,-0.25311 -1.956716,-0.81773 z m 3.533771,-7.33038 c 0,-0.52569 -0.204433,-0.97349 -0.613299,-1.34342 -0.389396,-0.3894 -0.846937,-0.59383 -1.372622,-0.6133 l -1.54785,-0.0584 v 3.94264 l 1.54785,-0.0584 c 0.525685,-0.0195 0.983226,-0.20443 1.372622,-0.55489 0.408866,-0.35046 0.613299,-0.78853 0.613299,-1.31421 z"
         sodipodi:nodetypes="cscscscccssscccscccccssccsccsccccccss" />
    </g>
    <g
       id="g19425"
       transform="translate(57.475068,2.2386075)">
      <rect
         inkscape:export-ydpi="260.10001"
         inkscape:export-xdpi="260.10001"
         inkscape:export-filename="/Users/KesieV/Downloads/icon.png"
         y="14.954166"
         x="19.84375"
         height="50"
         width="50"
         id="rect918"
         style="opacity:1;fill:#222831;fill-opacity:1;fill-rule:nonzero;stroke:none;stroke-width:1;stroke-linecap:round;stroke-linejoin:round;stroke-miterlimit:4;stroke-dasharray:none;stroke-dashoffset:3.40157509;stroke-opacity:1;paint-order:markers stroke fill" />
      <path
         inkscape:export-ydpi="260.10001"
         inkscape:export-xdpi="260.10001"
         inkscape:export-filename="/Users/KesieV/Downloads/path1735.png"
         inkscape:connector-curvature="0"
         id="path1735"
         style="font-style:normal;font-variant:normal;font-weight:normal;font-stretch:normal;font-size:medium;line-height:125%;font-family:bubbleboddy;-inkscape-font-specification:bubbleboddy;font-variant-ligatures:normal;font-variant-caps:normal;font-variant-numeric:normal;font-feature-settings:normal;text-align:center;letter-spacing:-1.1932708px;word-spacing:0px;writing-mode:lr-tb;text-anchor:middle;fill:#eeeeee;fill-opacity:1;stroke:none;stroke-width:0.91264749px;stroke-linecap:butt;stroke-linejoin:miter;stroke-opacity:1"
         d="m 42.342149,48.329569 v 1.625587 c 0,1.204135 -0.421449,2.212603 -1.264346,3.025404 -0.812793,0.812785 -1.806206,1.219178 -2.980242,1.219178 -1.204139,0 -2.212604,-0.406393 -3.025397,-1.219178 -0.812794,-0.812801 -1.219191,-1.821269 -1.219191,-3.025404 V 30.267752 c -0.0301,-0.541867 -0.105356,-1.08372 -0.225776,-1.625587 -0.120414,-0.541867 -0.165567,-1.023512 -0.135458,-1.444965 0.06021,-0.451556 0.270931,-0.812801 0.632172,-1.083718 0.36124,-0.270934 1.038569,-0.406393 2.031983,-0.406393 h 8.579486 c 1.56538,0 3.04045,0.301022 4.425208,0.903096 1.414863,0.602075 2.634052,1.429921 3.657571,2.483536 1.05362,1.023512 1.881466,1.971511 2.483534,3.386371 0.602071,1.384757 0.903106,2.859841 0.903106,4.42522 0,0.903097 -0.13546,1.79115 -0.406398,2.664143 -0.270931,0.873009 -0.647225,1.700854 -1.128881,2.483536 -0.451551,0.782698 -0.993412,1.490128 -1.625586,2.122306 -0.602069,0.63218 -1.249294,1.143928 -1.941672,1.535276 l 2.077139,1.174031 c 0.481655,0.331142 0.827843,0.752579 1.038568,1.264343 0.210724,0.511764 0.316086,1.053615 0.316086,1.625587 0,0.541867 -0.120414,1.098778 -0.361241,1.67075 -0.210725,0.571971 -0.51176,1.068675 -0.903103,1.490112 -0.842898,0.812802 -1.836311,1.234239 -2.980242,1.264342 -1.143932,0.03015 -2.152398,-0.391348 -3.025398,-1.264342 z m 5.463777,-11.333946 c 0,-0.812801 -0.316086,-1.505171 -0.948258,-2.077143 -0.60207,-0.602075 -1.309501,-0.918156 -2.122295,-0.94826 l -2.393224,-0.0903 v 6.095954 l 2.393224,-0.0903 c 0.812794,-0.03015 1.520225,-0.316082 2.122295,-0.857949 0.632172,-0.541868 0.948258,-1.219195 0.948258,-2.031981 z"
         sodipodi:nodetypes="cscscscccssscccscccccssccsccsccccccss" />
    </g>
  </g>
  <g
     inkscape:groupmode="layer"
     id="layer2"
     inkscape:label="guide"
     style="display:none">
    <circle
       style="opacity:1;fill:none;fill-opacity:1;fill-rule:nonzero;stroke:#ff0000;stroke-width:1;stroke-linecap:round;stroke-linejoin:round;stroke-miterlimit:4;stroke-dasharray:none;stroke-dashoffset:3.40157509;stroke-opacity:1;paint-order:markers stroke fill"
       id="path1733"
       cx="44.84375"
       cy="39.954166"
       r="19.5" />
  </g>
</svg>
